<mxfile host="app.diagrams.net" modified="2024-05-28T11:09:53.767Z" agent="Mozilla/5.0 (Windows NT 10.0; Win64; x64) AppleWebKit/537.36 (KHTML, like Gecko) Chrome/125.0.0.0 Safari/537.36" version="22.1.17" etag="bUw7OSp_COeONZd19SAd" type="github">
  <diagram name="第 1 页" id="hiswolY8QC2ZHaulNmxb">
    <mxGraphModel>
      <root>
        <mxCell id="0" />
        <mxCell id="1" parent="0" />
      </root>
    </mxGraphModel>
  </diagram>
</mxfile>
